<svg xmlns="http://www.w3.org/2000/svg" viewBox="0 0 100 100" width="100" height="100">
  <!-- Ear panels -->
  <rect x="10" y="40" width="9" height="22" rx="3" fill="#2563eb"/>
  <rect x="81" y="40" width="9" height="22" rx="3" fill="#2563eb"/>
  <circle cx="14.5" cy="46" r="2" fill="#38bdf8"/>
  <circle cx="14.5" cy="56" r="2" fill="#38bdf8"/>
  <circle cx="85.5" cy="46" r="2" fill="#38bdf8"/>
  <circle cx="85.5" cy="56" r="2" fill="#38bdf8"/>
  <!-- Main head -->
  <rect x="19" y="27" width="62" height="52" rx="9" fill="#2563eb"/>
  <!-- Antenna stem -->
  <rect x="46" y="13" width="8" height="16" rx="4" fill="#2563eb"/>
  <!-- Antenna bulb with glow ring -->
  <circle cx="50" cy="11" r="8" fill="none" stroke="#38bdf8" stroke-width="1.5" opacity="0.4"/>
  <circle cx="50" cy="11" r="5.5" fill="#38bdf8"/>
  <circle cx="50" cy="11" r="2.5" fill="#ffffff" opacity="0.85"/>
  <!-- Left eye -->
  <rect x="25" y="39" width="20" height="14" rx="4" fill="#0f172a"/>
  <rect x="27" y="41" width="16" height="10" rx="2.5" fill="#00d4ff"/>
  <rect x="30" y="43" width="10" height="6" rx="1.5" fill="#a5f3fc" opacity="0.6"/>
  <!-- Right eye -->
  <rect x="55" y="39" width="20" height="14" rx="4" fill="#0f172a"/>
  <rect x="57" y="41" width="16" height="10" rx="2.5" fill="#00d4ff"/>
  <rect x="60" y="43" width="10" height="6" rx="1.5" fill="#a5f3fc" opacity="0.6"/>
  <!-- Mouth grill -->
  <rect x="27" y="62" width="46" height="10" rx="4" fill="#0f172a"/>
  <rect x="31" y="65" width="7" height="4" rx="1.5" fill="#38bdf8"/>
  <rect x="42" y="65" width="7" height="4" rx="1.5" fill="#38bdf8"/>
  <rect x="53" y="65" width="7" height="4" rx="1.5" fill="#38bdf8"/>
  <rect x="64" y="65" width="5" height="4" rx="1.5" fill="#38bdf8" opacity="0.5"/>
  <!-- Neck -->
  <rect x="39" y="79" width="22" height="10" rx="3" fill="#2563eb"/>
</svg>
